<?xml version="1.0" encoding="iso-8859-1"?>
<!-- Generator: Adobe Illustrator 19.1.0, SVG Export Plug-In . SVG Version: 6.00 Build 0)  -->
<svg xmlns="http://www.w3.org/2000/svg" xmlns:xlink="http://www.w3.org/1999/xlink" version="1.1" id="Capa_1" x="0px" y="0px" viewBox="0 0 467.421 467.421" style="enable-background:new 0 0 467.421 467.421;" xml:space="preserve" width="512px" height="512px">
<g>
	<g>
		<path d="M388.322,171.554v-4.973h12.431c7.459,0,12.431-4.973,12.431-12.431v-24.863l17.404-2.486    c2.486,0,4.973-2.486,7.459-2.486c14.918-14.918,19.89-37.294,12.431-57.185L428.103,7.459C425.616,2.486,423.13,0,418.158,0    c-4.973,0-7.459,0-12.431,2.486L206.824,201.389l-37.294-12.431c-27.349-9.945-69.616,0-89.506,19.89l-49.726,49.726    c-22.377,22.377-22.377,59.671,0,82.047l109.396,109.396c9.945,9.945,24.863,17.404,42.267,17.404    c14.918,0,29.835-4.973,42.267-17.404l49.726-49.726c22.377-22.377,29.835-59.671,19.89-89.506l-12.431-37.294L383.35,174.04    C385.836,179.012,388.322,174.04,388.322,171.554z M256.549,385.374l-49.726,49.726c-12.431,12.431-34.808,12.431-47.239,0    L50.188,325.703c-12.431-12.431-12.431-34.808,0-47.239l49.726-49.726c9.945-9.945,29.835-17.404,47.239-17.404    c4.973,0,12.431,0,17.404,2.486l44.753,14.918c19.89,7.459,44.753,29.835,49.726,49.726l14.918,44.753    C278.926,343.107,271.467,372.942,256.549,385.374z M363.459,154.15v12.431l-89.506,87.02    c-9.945-14.918-24.863-29.835-39.781-39.781L413.185,34.808l14.918,39.781c2.486,9.945,2.486,19.89-4.973,27.349l-24.863,4.973    c-4.973,0-9.945,4.973-9.945,12.431v22.377h-12.431C368.432,141.718,363.459,146.691,363.459,154.15z" fill="#FFFFFF"/>
		<path d="M142.18,293.381c-12.431-12.431-29.835-12.431-42.267-2.486l-9.945,9.945c-9.945,9.945-9.945,29.835,2.486,42.267    l49.726,49.726c4.973,4.973,14.918,9.945,22.377,9.945c7.459,0,14.918-2.486,19.89-7.459l9.945-9.945    c9.945-9.945,9.945-29.835-2.486-42.267L142.18,293.381z M174.502,367.97l-9.945,9.945c-2.486,2.486-4.973,0-4.973-2.486    l-49.726-49.726c-2.486-2.486-2.486-4.973-2.486-4.973l9.945-9.945c2.486,0,2.486,0,4.973,2.486l49.726,49.726    C176.988,362.997,176.988,367.97,174.502,367.97z" fill="#FFFFFF"/>
	</g>
</g>
<g>
</g>
<g>
</g>
<g>
</g>
<g>
</g>
<g>
</g>
<g>
</g>
<g>
</g>
<g>
</g>
<g>
</g>
<g>
</g>
<g>
</g>
<g>
</g>
<g>
</g>
<g>
</g>
<g>
</g>
</svg>
